<svg xmlns="http://www.w3.org/2000/svg" viewBox="0 0 16 16" class="svg ctp-folder-pesde-open" width="16" height="16" aria-hidden="true"><path fill="none" stroke="var(--vscode-ctp-text)" stroke-linecap="round" stroke-linejoin="round" d="m1.87 8 .7-2.74a1 1 0 0 1 .96-.76h10.94a1 1 0 0 1 .97 1.24l-.219.875M6 13.5H2A1.5 1.5 0 0 1 .5 12V3.5a1 1 0 0 1 1-1h5a1 1 0 0 1 1 1v1"/><path fill="none" stroke="var(--vscode-ctp-yellow)" stroke-linecap="round" stroke-linejoin="round" d="M8.888 15.5v-4.945H7.782"/><ellipse cx="10.663" cy="12.252" fill="none" stroke="var(--vscode-ctp-yellow)" stroke-linecap="round" stroke-linejoin="round" rx="1.763" ry="1.674"/><path fill="none" stroke="var(--vscode-ctp-yellow)" stroke-linecap="round" stroke-linejoin="round" d="M15.357 11.683c-.603.577-1.93.571-2.651.133-.722-.439-1.023-1.296-.723-2.058s1.119-1.222 1.966-1.104c.848.118 1.494.898 1.551 1.71h-3.467"/></svg>