<svg xmlns="http://www.w3.org/2000/svg" viewBox="0 0 16 16" class="svg ctp-folder-xcode-open" width="16" height="16" aria-hidden="true"><g fill="none" stroke-linecap="round" stroke-linejoin="round"><path stroke="var(--vscode-ctp-blue)" stroke-width=".583" d="M14.54 11.61v2.164c0 .9-.724 1.623-1.623 1.623h-1.29m-2.622 0h-.416a1.62 1.62 0 0 1-1.623-1.623V9.445c0-.9.724-1.623 1.623-1.623h1.582m-1.457 6.119 2.622-4.662m-1.165 0 .86 1.53m1.598 2.841.164.291m-4.37-1.457h1.735" transform="matrix(.9666 0 0 .9654 .545 .551)"/><g stroke-width="1.884"><path stroke="var(--vscode-ctp-text)" d="M14 12 .34 25.7c-1.443 1.447-3.267-.727-1.996-2.003l13.66-13.7" transform="matrix(.28563 -.08959 .08943 .28431 8.462 8.176)"/><path stroke="var(--vscode-ctp-overlay1)" d="m21.5 11.5-1.914-1.914A2 2 0 0 1 19 8.172V7l-2.26-2.26a6 6 0 0 0-4.202-1.756L9 2.96l.92.82A6.18 6.18 0 0 1 12 8.4V10l2 2h1.172a2 2 0 0 1 1.414.586L18.5 14.5m-.408.569 3.854-4.031" transform="matrix(.28563 -.08959 .08943 .28431 8.462 8.176)"/></g><path stroke="var(--vscode-ctp-text)" d="m1.873 8 .702-2.74a1.002 1 0 0 1 .961-.76h10.96a1.002 1 0 0 1 .973 1.24l-.22.875M6.009 13.5H2.001A1.503 1.5 0 0 1 .498 12V3.5a1.002 1 0 0 1 1.002-1h5.01a1.002 1 0 0 1 1.002 1v1" transform="scale(1.0004 1.0002)"/></g></svg>